<?xml version="1.0" standalone="no"?>
<!DOCTYPE svg PUBLIC "-//W3C//DTD SVG 20010904//EN"
 "http://www.w3.org/TR/2001/REC-SVG-20010904/DTD/svg10.dtd">
<svg version="1.0" xmlns="http://www.w3.org/2000/svg"
 width="172.000000pt" height="142.000000pt" viewBox="0 0 172.000000 142.000000"
 preserveAspectRatio="xMidYMid meet">

<g transform="translate(0.000000,142.000000) scale(0.100000,-0.100000)"
fill="#808080" stroke="none">
<path d="M755 1410 c-44 -5 -111 -16 -150 -25 -69 -16 -70 -16 -84 5 -18 26
-47 26 -165 -5 -155 -40 -346 -147 -346 -193 0 -9 26 -69 58 -134 47 -98 61
-118 77 -116 19 3 59 57 133 182 18 31 37 54 41 52 10 -7 105 38 145 69 18 14
41 41 52 60 28 53 115 70 349 70 221 0 326 -19 349 -63 28 -53 138 -132 184
-132 24 0 54 -38 111 -139 39 -70 66 -101 86 -101 16 0 125 217 125 250 0 11
-10 31 -22 43 -55 55 -307 158 -424 174 -40 5 -44 3 -55 -21 -9 -18 -17 -25
-28 -20 -36 14 -201 42 -276 47 -44 3 -116 1 -160 -3z m-400 -67 c-73 -38
-160 -148 -195 -247 -10 -28 -19 -46 -19 -40 -1 6 6 30 14 54 10 29 12 47 5
60 -13 24 -13 66 0 91 13 23 74 56 150 80 68 22 84 23 45 2z m1187 -56 c41
-28 57 -77 36 -109 -13 -20 -13 -28 -2 -62 20 -57 10 -55 -11 1 -36 97 -96
169 -191 230 -11 7 16 1 58 -13 43 -14 92 -35 110 -47z"/>
<path d="M864 1081 c9 -145 7 -153 -60 -180 l-54 -23 -48 50 c-41 43 -55 52
-107 62 -70 14 -145 7 -217 -20 -29 -11 -54 -18 -56 -15 -3 2 1 18 8 35 33 79
84 104 153 75 25 -10 50 -13 72 -9 27 5 46 0 84 -19 41 -22 51 -24 66 -13 43
31 -33 70 -124 64 -54 -4 -73 -1 -102 15 -35 20 -37 20 -83 3 -54 -21 -90 -63
-106 -126 -11 -42 -16 -47 -81 -78 -66 -32 -69 -35 -84 -84 -21 -70 -19 -169
5 -251 24 -85 31 -94 102 -124 l57 -25 36 -92 c54 -139 115 -248 152 -272 48
-32 136 -45 334 -51 247 -8 423 18 469 67 29 31 86 143 136 263 33 82 33 82
91 107 32 14 63 29 70 33 23 15 55 145 54 224 -1 138 -11 159 -107 207 -47 23
-53 31 -73 85 -25 68 -62 105 -121 121 -33 9 -45 8 -72 -7 -23 -12 -52 -16
-95 -14 -70 3 -123 -18 -123 -48 0 -28 24 -32 61 -9 19 12 63 25 99 29 36 5
81 11 101 15 31 5 41 2 68 -23 17 -15 38 -45 47 -67 15 -37 14 -38 -3 -31 -10
4 -45 16 -78 27 -115 38 -271 4 -319 -70 l-20 -30 -45 17 -46 17 -5 112 c-3
62 -1 117 4 122 12 12 -11 40 -32 40 -13 0 -14 -15 -8 -109z m-267 -126 c52
-15 120 -76 108 -96 -4 -5 -23 -18 -44 -29 l-38 -19 -24 25 c-38 41 -116 75
-188 83 l-66 7 55 16 c50 15 85 22 131 27 8 0 38 -6 66 -14z m689 6 c27 -5 63
-15 79 -22 l30 -12 -54 -8 c-72 -10 -134 -34 -188 -76 l-45 -34 -39 25 c-21
15 -39 30 -39 34 0 19 71 74 111 87 54 17 82 18 145 6z m-949 -47 c-3 -3 -12
-4 -19 -1 -8 3 -5 6 6 6 11 1 17 -2 13 -5z m-130 -52 c-10 -10 -24 -19 -32
-19 -21 0 -19 4 13 21 36 20 38 20 19 -2z m296 -16 c53 -22 91 -70 90 -112 -2
-56 -21 -66 -29 -14 -18 112 -149 165 -233 94 -16 -14 -32 -21 -35 -16 -6 10
30 46 54 55 30 11 121 7 153 -7z m912 -8 c19 -13 35 -29 35 -35 0 -18 -7 -16
-32 7 -42 39 -115 44 -174 12 -29 -15 -53 -54 -62 -99 -10 -50 -26 -48 -30 3
-2 28 3 47 17 66 52 66 178 89 246 46z m-945 -33 c38 -20 50 -43 50 -100 0
-38 -5 -52 -29 -76 -38 -37 -97 -41 -129 -6 -58 62 -48 144 24 182 36 19 48
19 84 0z m923 -25 c62 -69 18 -180 -71 -180 -33 0 -45 6 -72 37 -28 32 -32 41
-27 80 11 98 106 133 170 63z m204 -62 c-3 -7 -5 -2 -5 12 0 14 2 19 5 13 2
-7 2 -19 0 -25z m-1417 -53 c1 18 2 17 11 -4 5 -14 7 -39 4 -55 -5 -23 -4 -27
4 -16 13 18 14 1 2 -19 -7 -10 -15 5 -30 53 -23 75 -27 111 -6 56 10 -25 14
-29 15 -15z m1401 -11 c-5 -16 -10 -21 -10 -12 -1 18 10 51 15 45 2 -1 -1 -16
-5 -33z m-605 1 c38 -12 56 -26 81 -60 18 -25 29 -45 24 -45 -5 0 -14 7 -21
15 -6 8 -22 17 -33 21 -12 4 -36 17 -52 30 -17 12 -51 28 -76 35 -42 11 -49
10 -100 -15 -70 -34 -122 -66 -156 -97 -25 -22 -25 -21 3 11 17 19 41 49 53
65 12 17 39 35 59 42 53 17 160 16 218 -2z m581 -7 c-3 -8 -6 -5 -6 6 -1 11 2
17 5 13 3 -3 4 -12 1 -19z m-1180 -94 c-10 -10 -72 44 -75 65 -3 20 2 17 38
-19 23 -23 40 -44 37 -46z m1063 61 c0 -23 -37 -55 -62 -55 -20 0 -19 2 10 20
18 11 35 27 38 35 8 19 14 19 14 0z m116 -36 c-9 -19 -15 -29 -16 -22 0 6 -3
20 -6 30 -4 14 -4 15 4 4 8 -11 11 -9 17 8 4 13 9 21 11 18 2 -2 -2 -19 -10
-38z m-706 -3 c0 -3 -4 -16 -10 -30 -14 -37 -32 -33 -19 4 6 17 15 30 20 30 5
0 9 -2 9 -4z m60 -10 c0 -8 3 -23 7 -33 6 -16 5 -16 -10 -4 -18 15 -23 51 -7
51 6 0 10 -6 10 -14z m360 -22 c0 -2 -9 0 -20 6 -11 6 -20 13 -20 16 0 2 9 0
20 -6 11 -6 20 -13 20 -16z m-519 -30 c30 -9 65 -26 79 -39 22 -21 25 -30 22
-88 -3 -61 -5 -64 -35 -75 -18 -7 -63 -37 -102 -69 -125 -101 -198 -121 -252
-71 -34 32 -38 77 -14 156 l21 69 59 16 c45 13 72 29 113 66 29 28 53 50 54
51 0 0 25 -7 55 -16z m340 -29 c45 -38 138 -85 169 -85 11 0 50 -122 50 -157
0 -40 -27 -81 -62 -92 -56 -19 -110 5 -238 105 -30 24 -72 50 -92 59 l-38 15
0 63 c0 59 2 63 33 84 28 19 98 50 119 52 3 1 30 -19 59 -44z m40 28 c13 -16
12 -17 -3 -4 -10 7 -18 15 -18 17 0 8 8 3 21 -13z m-571 -37 c0 -2 -7 -7 -16
-10 -8 -3 -12 -2 -9 4 6 10 25 14 25 6z m680 -10 c0 -3 -4 -8 -10 -11 -5 -3
-10 -1 -10 4 0 6 5 11 10 11 6 0 10 -2 10 -4z m180 0 c0 -2 -7 -7 -16 -10 -8
-3 -12 -2 -9 4 6 10 25 14 25 6z m-50 -17 c-11 -8 -3 -9 30 -5 32 5 41 3 30
-4 -19 -12 -63 -13 -75 -1 -6 5 -19 11 -30 14 -11 3 -2 5 20 6 31 0 37 -2 25
-10z m-33 -15 c-3 -3 -12 -4 -19 -1 -8 3 -5 6 6 6 11 1 17 -2 13 -5z m-380
-253 c23 -11 68 -39 99 -63 l57 -43 -40 -17 c-62 -27 -208 -41 -297 -29 -78
11 -146 34 -146 48 1 11 126 96 163 110 48 17 117 15 164 -6z"/>
<path d="M392 790 c-29 -12 -57 -70 -48 -104 20 -81 119 -89 151 -13 17 42 9
83 -23 107 -27 22 -45 24 -80 10z m73 -58 c0 -18 -20 -15 -23 4 -3 10 1 15 10
12 7 -3 13 -10 13 -16z m-51 -41 c12 -13 14 -21 6 -26 -13 -8 -40 12 -40 31 0
20 14 17 34 -5z"/>
<path d="M1269 771 c-38 -38 -39 -87 -4 -125 65 -70 171 11 129 100 -15 30
-49 54 -80 54 -9 0 -29 -13 -45 -29z m41 -35 c0 -8 -4 -17 -9 -21 -12 -7 -24
12 -16 25 9 15 25 12 25 -4z m50 -57 c-11 -20 -22 -24 -33 -12 -9 9 23 44 34
37 5 -3 4 -14 -1 -25z"/>
</g>
</svg>
