<?xml version="1.0" standalone="no"?>
<!DOCTYPE svg PUBLIC "-//W3C//DTD SVG 20010904//EN"
 "http://www.w3.org/TR/2001/REC-SVG-20010904/DTD/svg10.dtd">
<svg version="1.0" xmlns="http://www.w3.org/2000/svg"
 width="172.000000pt" height="172.000000pt" viewBox="0 0 172.000000 172.000000"
 preserveAspectRatio="xMidYMid meet">
<metadata>
Created by potrace 1.14, written by Peter Selinger 2001-2017
</metadata>
<g transform="translate(0.000000,172.000000) scale(0.100000,-0.100000)"
fill="#000000" stroke="none">
<path d="M745 1560 c-45 -5 -110 -16 -145 -25 -64 -17 -65 -16 -79 4 -17 27
-54 27 -157 0 -137 -36 -306 -121 -346 -174 -17 -22 -16 -25 25 -106 24 -46
51 -103 60 -127 15 -38 21 -43 44 -40 21 2 28 -2 34 -23 5 -22 2 -29 -17 -40
-54 -28 -70 -185 -32 -321 l21 -78 68 -33 c68 -32 69 -32 95 -102 25 -66 98
-219 126 -264 36 -58 201 -85 473 -78 203 5 314 23 358 57 26 20 111 184 150
290 24 62 26 65 83 90 83 35 81 34 104 109 25 83 29 141 18 222 -9 68 -18 83
-63 111 -16 10 -25 18 -18 18 6 0 10 11 9 24 -3 22 0 24 24 19 27 -5 30 -1 84
110 31 64 56 127 56 141 0 33 -41 64 -161 120 -99 47 -274 100 -312 94 -12 -2
-26 -13 -32 -26 -6 -14 -15 -20 -25 -16 -17 7 -81 23 -120 30 -14 3 -32 7 -40
9 -35 9 -211 12 -285 5z"/>
</g>
</svg>
